<svg width="26" height="26" viewBox="0 0 26 26" fill="none" xmlns="http://www.w3.org/2000/svg">
<path d="M17.4685 14.7024C17.4685 16.2302 16.23 17.4688 14.7021 17.4688V18.7455C16.23 18.7455 17.4685 19.9841 17.4685 21.5119H18.7453C18.7453 19.9841 19.9839 18.7455 21.5117 18.7455V17.4688C19.9839 17.4688 18.7453 16.2302 18.7453 14.7024H17.4685Z" fill="currentColor"/>
<path d="M10.0205 4.48816C10.0205 7.54381 7.5434 10.0209 4.48779 10.0209V12.5745C7.5434 12.5745 10.0205 15.0516 10.0205 18.1072H12.5741C12.5741 15.0516 15.0512 12.5745 18.1068 12.5745V10.0209C15.0512 10.0209 12.5741 7.54381 12.5741 4.48816H10.0205Z" fill="currentColor"
/>
</svg>
